<svg id="svg4593" height="512" viewBox="0 0 16.933333 16.933334" width="512" xmlns="http://www.w3.org/2000/svg" xmlns:svg="http://www.w3.org/2000/svg"><clipPath id="clipPath5337"><path id="rect5339" d="m34.774 274.321h35.435v25.702h-35.435z"/></clipPath><clipPath id="clipPath4542"><path id="rect4544" d="m-535.214-48.848h501.574v185.586h-501.574z"/></clipPath><clipPath id="clipPath11017"><path id="rect11019" d="m36.669 153.503h29.654v28.999h-29.654z" transform="rotate(-90)" vector-effect="none"/></clipPath><g id="layer1" transform="translate(0 -280.067)"><path id="path11037" d="m11.700271 294.18908h-6.4671835c0 1.30931 1.022485 2.28174 2.2630802 2.28174h1.9410233c1.240595 0 2.26308-1.00318 2.26308-2.28174z" fill="#666" vector-effect="none"/><path id="path11103" d="m7.4620732 294.1893c-.2269006.30669-.087178.91984.4227131.91984h3.6266517c.126782-.30084.188619-.58796.188619-.91984z" fill="#4d4d4d" font-variant-ligatures="normal" font-variant-position="normal" font-variant-caps="normal" font-variant-numeric="normal" font-variant-alternates="normal" font-feature-settings="normal" text-indent="0" text-align="start" text-decoration-line="none" text-decoration-style="solid" text-decoration-color="#000000" text-transform="none" text-orientation="mixed" white-space="normal" shape-padding="0" isolation="auto" mix-blend-mode="normal" solid-color="#000000" solid-opacity="1" vector-effect="none"/><path id="path11023" d="m8.4666793 280.59582c-3.0210183 0-5.4700384 2.44902-5.4700384 5.47004 0 2.90597 1.7490361 3.98668 1.7490361 5.3985h7.443259c0-1.3407 1.747756-2.59908 1.747756-5.39842 0-3.19685-2.261867-5.47011-5.4700246-5.47011z" fill="#ffc861" vector-effect="none"/><path id="path11061" d="m13.035376 285.44513c.542659 2.00781-1.184241 3.41968-1.461409 5.09788h-4.8287276c-.4181496.00053-.6705767.56232-.4449152.91435 1.9649777 0 3.9263578.007 5.8886118.007 0-1.30962 1.747726-2.62626 1.747726-5.3988 0-.39904-.03491-.78372-.102836-1.15135-.397046-.21335-.840206.1749-.79845.53092z" fill="#ffab61" font-variant-ligatures="normal" font-variant-position="normal" font-variant-caps="normal" font-variant-numeric="normal" font-variant-alternates="normal" font-feature-settings="normal" text-indent="0" text-align="start" text-decoration-line="none" text-decoration-style="solid" text-decoration-color="#000000" text-transform="none" text-orientation="mixed" white-space="normal" shape-padding="0" isolation="auto" mix-blend-mode="normal" solid-color="#000000" solid-opacity="1" vector-effect="none"/><path id="path11059" d="m20.736328 19.693359 5.886719 23.296875h2.072265l-5.589843-22.152343 8.636719 2.28125c.169268.04535.348309.04535.517578 0l8.636718-2.28125-5.591796 22.152343h2.074218l5.886719-23.296875c.204472-.742941-.473404-1.427936-1.21875-1.232421l-10.046875 2.658203-10.046875-2.658203c-.82649-.24585-1.411066.5074-1.216797 1.232421z" fill="#4d4d4d" transform="matrix(.265 0 0 .265 0 280.067)" font-variant-ligatures="normal" font-variant-position="normal" font-variant-caps="normal" font-variant-numeric="normal" font-variant-alternates="normal" font-feature-settings="normal" text-indent="0" text-align="start" text-decoration-line="none" text-decoration-style="solid" text-decoration-color="#000000" text-transform="none" text-orientation="mixed" white-space="normal" shape-padding="0" isolation="auto" mix-blend-mode="normal" solid-color="#000000" solid-opacity="1" vector-effect="none"/><path id="rect11021" d="m4.8437386 291.35751h7.2458794c.351351 0 .634207.28286.634207.63421v1.62516c0 .35135-.282856.6342-.634207.6342h-7.2458794c-.3513508 0-.6342073-.28285-.6342073-.6342v-1.62516c0-.35135.2828565-.63421.6342073-.63421z" fill="#d1dcff" vector-effect="none"/><path id="path11289" d="m15.910156 50.314453v.898438c0 1.32794 1.068544 2.398437 2.396485 2.398437h7.898437c1.104731-1.298336.183246-3.295085-1.521484-3.296875z" fill="#bfd2ff" transform="matrix(.265 0 0 .265 0 280.067)" font-variant-ligatures="normal" font-variant-position="normal" font-variant-caps="normal" font-variant-numeric="normal" font-variant-alternates="normal" font-feature-settings="normal" text-indent="0" text-align="start" text-decoration-line="none" text-decoration-style="solid" text-decoration-color="#000000" text-transform="none" text-orientation="mixed" white-space="normal" shape-padding="0" isolation="auto" mix-blend-mode="normal" solid-color="#000000" solid-opacity="1" vector-effect="none"/></g></svg>