<?xml version="1.0"?>
<svg xmlns="http://www.w3.org/2000/svg" enable-background="new 0 0 512 512" height="512" viewBox="0 0 512 512" width="512" class=""><g><g id="_x33_33_x2C__Bubble_x2C__chat_x2C__comment"><path d="m443.5 130h-327.41l-86.09-72v72 20 263.5c0 20.16 16.34 36.5 36.5 36.5h377c20.16 0 36.5-16.34 36.5-36.5v-247c0-20.16-16.34-36.5-36.5-36.5z" fill="#313a52" data-original="#313A52" class=""/><g fill="#ef727a"><path d="m255 280c11.05 0 20 8.95 20 20s-8.95 20-20 20-20-8.95-20-20 8.95-20 20-20z" data-original="#EF727A" class="active-path" style="fill:#FFAB61" data-old_color="#EF727A"/><path d="m345 280c11.05 0 20 8.95 20 20s-8.95 20-20 20-20-8.95-20-20 8.95-20 20-20z" data-original="#EF727A" class="active-path" style="fill:#FFAB61" data-old_color="#EF727A"/><path d="m165 280c11.05 0 20 8.95 20 20s-8.95 20-20 20-20-8.95-20-20 8.95-20 20-20z" data-original="#EF727A" class="active-path" style="fill:#FFAB61" data-old_color="#EF727A"/></g><path d="m345 330c-16.542 0-30-13.458-30-30s13.458-30 30-30 30 13.458 30 30-13.458 30-30 30zm0-40c-5.514 0-10 4.486-10 10s4.486 10 10 10 10-4.486 10-10-4.486-10-10-10z" data-original="#000000" class="" style="fill:#000000"/><path d="m255 330c-16.542 0-30-13.458-30-30s13.458-30 30-30 30 13.458 30 30-13.458 30-30 30zm0-40c-5.514 0-10 4.486-10 10s4.486 10 10 10 10-4.486 10-10-4.486-10-10-10z" data-original="#000000" class="" style="fill:#000000"/><path d="m165 330c-16.542 0-30-13.458-30-30s13.458-30 30-30 30 13.458 30 30-13.458 30-30 30zm0-40c-5.514 0-10 4.486-10 10s4.486 10 10 10 10-4.486 10-10-4.486-10-10-10z" data-original="#000000" class="" style="fill:#000000"/><path d="m443.5 460h-377c-25.64 0-46.5-20.859-46.5-46.5v-355.5c0-3.883 2.248-7.416 5.767-9.06 3.518-1.645 7.67-1.102 10.649 1.389l83.304 69.671h323.78c25.641 0 46.5 20.86 46.5 46.5v247c0 25.641-20.859 46.5-46.5 46.5zm-403.5-380.601v334.101c0 14.612 11.888 26.5 26.5 26.5h377c14.612 0 26.5-11.888 26.5-26.5v-247c0-14.612-11.888-26.5-26.5-26.5h-327.41c-2.345 0-4.616-.824-6.416-2.329z" data-original="#000000" class="" style="fill:#000000"/></g></g> </svg>
